# Blender v2.80 (sub 75) OBJ File: ''
# www.blender.org
mtllib sphere.mtl
o Cube
v 3.201259 8.071231 -3.201259
v 3.201259 1.668713 -3.201259
v 3.201259 8.071232 3.201259
v 3.201259 1.668713 3.201259
v -3.201259 8.071232 -3.201259
v -3.201259 1.668713 -3.201259
v -3.201259 8.071232 3.201259
v -3.201259 1.668713 3.201259
v -3.668212 1.201761 -1.899306
v -3.902769 0.967203 -0.000000
v -3.668212 1.201761 1.899306
v 1.899307 1.201760 -3.668212
v 0.000000 0.967204 -3.902769
v -1.899306 1.201761 -3.668211
v 3.668212 6.769279 -3.668212
v 3.902769 4.869972 -3.902769
v 3.668212 2.970666 -3.668212
v -3.668212 2.970666 3.668212
v -3.902769 4.869972 3.902769
v -3.668212 6.769279 3.668212
v 3.668212 6.769279 3.668212
v 3.902769 4.869972 3.902769
v 3.668212 2.970666 3.668212
v -3.668212 6.769279 -3.668212
v -3.902769 4.869972 -3.902769
v -3.668212 2.970666 -3.668212
v 1.899306 8.538183 3.668213
v -0.000000 8.772741 3.902769
v -1.899307 8.538184 3.668212
v 3.668212 8.538184 -1.899306
v 3.902769 8.772741 0.000000
v 3.668212 8.538184 1.899307
v -1.899307 1.201761 3.668212
v -0.000000 0.967204 3.902769
v 1.899306 1.201761 3.668212
v -3.668212 8.538184 1.899306
v -3.902769 8.772741 -0.000000
v -3.668212 8.538184 -1.899306
v -1.899307 8.538184 -3.668212
v 0.000000 8.772741 -3.902769
v 1.899306 8.538184 -3.668212
v 3.668212 1.201760 1.899306
v 3.902769 0.967204 0.000000
v 3.668212 1.201761 -1.899306
v 2.024201 9.537342 -2.024202
v 0.000000 9.875645 -2.132938
v -2.024201 9.537342 -2.024201
v 2.132938 9.875645 0.000000
v -0.000000 10.244925 -0.000000
v -2.132938 9.875645 -0.000000
v 2.024201 9.537342 2.024201
v -0.000000 9.875645 2.132938
v -2.024201 9.537342 2.024201
v 2.024201 2.845771 4.667370
v 2.132938 4.869972 5.005672
v 2.024201 6.894174 4.667370
v -0.000000 2.737035 5.005672
v 0.000000 4.869972 5.374953
v 0.000000 7.002910 5.005672
v -2.024201 2.845771 4.667370
v -2.132938 4.869972 5.005672
v -2.024201 6.894174 4.667370
v -4.667370 2.845771 2.024201
v -5.005672 4.869972 2.132937
v -4.667370 6.894174 2.024201
v -5.005672 2.737035 -0.000000
v -5.374953 4.869972 -0.000000
v -5.005672 7.002910 0.000000
v -4.667370 2.845771 -2.024201
v -5.005672 4.869972 -2.132938
v -4.667370 6.894174 -2.024201
v -2.024201 0.202602 -2.024201
v -0.000000 -0.135700 -2.132938
v 2.024201 0.202602 -2.024201
v -2.132938 -0.135700 0.000000
v 0.000000 -0.504981 0.000000
v 2.132938 -0.135700 -0.000000
v -2.024201 0.202602 2.024201
v 0.000000 -0.135700 2.132938
v 2.024201 0.202602 2.024201
v 4.667370 2.845771 -2.024201
v 5.005672 4.869972 -2.132938
v 4.667370 6.894174 -2.024201
v 5.005672 2.737035 0.000000
v 5.374953 4.869972 -0.000000
v 5.005672 7.002910 -0.000000
v 4.667370 2.845771 2.024201
v 5.005672 4.869972 2.132938
v 4.667370 6.894174 2.024201
v -2.024201 2.845771 -4.667370
v -2.132937 4.869972 -5.005672
v -2.024201 6.894174 -4.667370
v 0.000000 2.737035 -5.005672
v 0.000000 4.869972 -5.374953
v -0.000000 7.002910 -5.005672
v 2.024201 2.845771 -4.667370
v 2.132938 4.869972 -5.005672
v 2.024201 6.894174 -4.667370
vt 0.437500 0.062500
vt 0.500000 0.125000
vt 0.437500 0.125000
vt 0.562500 0.062500
vt 0.500000 0.062500
vt 0.437500 0.187500
vt 0.562500 0.187500
vt 0.500000 0.187500
vt 0.375000 0.000000
vt 0.375000 0.062500
vt 0.437500 0.000000
vt 0.562500 0.000000
vt 0.500000 0.000000
vt 0.625000 0.000000
vt 0.625000 0.062500
vt 0.562500 0.125000
vt 0.625000 0.187500
vt 0.625000 0.250000
vt 0.562500 0.250000
vt 0.500000 0.250000
vt 0.437500 0.250000
vt 0.375000 0.250000
vt 0.375000 0.187500
vt 0.375000 0.125000
vt 0.437500 0.312500
vt 0.500000 0.375000
vt 0.437500 0.375000
vt 0.562500 0.312500
vt 0.500000 0.312500
vt 0.437500 0.437500
vt 0.562500 0.437500
vt 0.500000 0.437500
vt 0.375000 0.250000
vt 0.375000 0.312500
vt 0.437500 0.250000
vt 0.562500 0.250000
vt 0.500000 0.250000
vt 0.625000 0.250000
vt 0.625000 0.312500
vt 0.562500 0.375000
vt 0.625000 0.437500
vt 0.625000 0.500000
vt 0.562500 0.500000
vt 0.500000 0.500000
vt 0.437500 0.500000
vt 0.375000 0.500000
vt 0.375000 0.437500
vt 0.375000 0.375000
vt 0.437500 0.562500
vt 0.500000 0.625000
vt 0.437500 0.625000
vt 0.562500 0.562500
vt 0.500000 0.562500
vt 0.437500 0.687500
vt 0.562500 0.687500
vt 0.500000 0.687500
vt 0.375000 0.562500
vt 0.625000 0.562500
vt 0.562500 0.625000
vt 0.625000 0.687500
vt 0.625000 0.750000
vt 0.562500 0.750000
vt 0.500000 0.750000
vt 0.437500 0.750000
vt 0.375000 0.750000
vt 0.375000 0.687500
vt 0.375000 0.625000
vt 0.437500 0.812500
vt 0.500000 0.875000
vt 0.437500 0.875000
vt 0.562500 0.812500
vt 0.500000 0.812500
vt 0.437500 0.937500
vt 0.562500 0.937500
vt 0.500000 0.937500
vt 0.375000 0.812500
vt 0.437500 0.750000
vt 0.562500 0.750000
vt 0.500000 0.750000
vt 0.625000 0.750000
vt 0.625000 0.812500
vt 0.562500 0.875000
vt 0.625000 0.937500
vt 0.625000 1.000000
vt 0.562500 1.000000
vt 0.500000 1.000000
vt 0.437500 1.000000
vt 0.375000 1.000000
vt 0.375000 0.937500
vt 0.375000 0.875000
vt 0.187500 0.562500
vt 0.250000 0.625000
vt 0.187500 0.625000
vt 0.312500 0.562500
vt 0.250000 0.562500
vt 0.187500 0.687500
vt 0.312500 0.687500
vt 0.250000 0.687500
vt 0.125000 0.500000
vt 0.125000 0.562500
vt 0.187500 0.500000
vt 0.312500 0.500000
vt 0.250000 0.500000
vt 0.375000 0.500000
vt 0.375000 0.562500
vt 0.312500 0.625000
vt 0.375000 0.687500
vt 0.375000 0.750000
vt 0.312500 0.750000
vt 0.250000 0.750000
vt 0.187500 0.750000
vt 0.125000 0.750000
vt 0.125000 0.687500
vt 0.125000 0.625000
vt 0.687500 0.562500
vt 0.750000 0.625000
vt 0.687500 0.625000
vt 0.812500 0.562500
vt 0.750000 0.562500
vt 0.687500 0.687500
vt 0.812500 0.687500
vt 0.750000 0.687500
vt 0.625000 0.500000
vt 0.625000 0.562500
vt 0.687500 0.500000
vt 0.812500 0.500000
vt 0.750000 0.500000
vt 0.875000 0.500000
vt 0.875000 0.562500
vt 0.812500 0.625000
vt 0.875000 0.687500
vt 0.875000 0.750000
vt 0.812500 0.750000
vt 0.750000 0.750000
vt 0.687500 0.750000
vt 0.625000 0.687500
vt 0.625000 0.625000
vt 0.625000 0.125000
vt 0.625000 0.375000
vt 0.625000 0.625000
vt 0.625000 0.875000
vt 0.375000 0.625000
vt 0.875000 0.625000
vn 0.3362 0.8797 -0.3362
vn 0.0000 1.0000 0.0000
vn 0.3553 0.9348 0.0000
vn -0.3362 0.8797 -0.3362
vn 0.0000 0.9348 -0.3553
vn 0.3362 0.8797 0.3362
vn -0.3362 0.8797 0.3362
vn 0.0000 0.9348 0.3553
vn 0.5773 0.5773 -0.5773
vn 0.6737 0.6737 -0.3038
vn 0.3038 0.6737 -0.6737
vn -0.3038 0.6737 -0.6737
vn 0.0000 0.7071 -0.7071
vn -0.5773 0.5773 -0.5773
vn -0.6737 0.6737 -0.3038
vn -0.3553 0.9348 0.0000
vn -0.6737 0.6737 0.3038
vn -0.5773 0.5773 0.5773
vn -0.3038 0.6737 0.6737
vn 0.0000 0.7071 0.7071
vn 0.3038 0.6737 0.6737
vn 0.5773 0.5773 0.5773
vn 0.6737 0.6737 0.3038
vn 0.7071 0.7071 0.0000
vn 0.3362 -0.3362 0.8797
vn 0.0000 0.0000 1.0000
vn 0.0000 -0.3553 0.9348
vn 0.3362 0.3362 0.8797
vn 0.3553 0.0000 0.9348
vn -0.3362 -0.3362 0.8797
vn -0.3362 0.3362 0.8797
vn -0.3553 0.0000 0.9348
vn 0.5773 -0.5773 0.5773
vn 0.3038 -0.6737 0.6737
vn 0.6737 -0.3038 0.6737
vn 0.6737 0.3038 0.6737
vn 0.7071 0.0000 0.7071
vn 0.0000 0.3553 0.9348
vn -0.6737 0.3038 0.6737
vn -0.7071 0.0000 0.7071
vn -0.6737 -0.3038 0.6737
vn -0.5773 -0.5773 0.5773
vn -0.3038 -0.6737 0.6737
vn 0.0000 -0.7071 0.7071
vn -0.8797 -0.3362 0.3362
vn -1.0000 0.0000 0.0000
vn -0.9348 -0.3553 0.0000
vn -0.8797 0.3362 0.3362
vn -0.9348 0.0000 0.3553
vn -0.8797 -0.3362 -0.3362
vn -0.8797 0.3362 -0.3362
vn -0.9348 0.0000 -0.3553
vn -0.6737 -0.6737 0.3038
vn -0.9348 0.3553 0.0000
vn -0.6737 0.3038 -0.6737
vn -0.7071 0.0000 -0.7071
vn -0.6737 -0.3038 -0.6737
vn -0.5773 -0.5773 -0.5773
vn -0.6737 -0.6737 -0.3038
vn -0.7071 -0.7071 0.0000
vn -0.3362 -0.8797 -0.3362
vn 0.0000 -1.0000 0.0000
vn -0.3553 -0.9348 0.0000
vn 0.3362 -0.8797 -0.3362
vn 0.0000 -0.9348 -0.3553
vn -0.3362 -0.8797 0.3362
vn 0.3362 -0.8797 0.3362
vn 0.0000 -0.9348 0.3553
vn -0.3038 -0.6737 -0.6737
vn 0.3038 -0.6737 -0.6737
vn 0.0000 -0.7071 -0.7071
vn 0.5773 -0.5773 -0.5773
vn 0.6737 -0.6737 -0.3038
vn 0.3553 -0.9348 0.0000
vn 0.6737 -0.6737 0.3038
vn 0.8797 -0.3362 -0.3362
vn 1.0000 0.0000 0.0000
vn 0.9348 -0.3553 0.0000
vn 0.8797 0.3362 -0.3362
vn 0.9348 0.0000 -0.3553
vn 0.8797 -0.3362 0.3362
vn 0.8797 0.3362 0.3362
vn 0.9348 0.0000 0.3553
vn 0.6737 -0.3038 -0.6737
vn 0.6737 0.3038 -0.6737
vn 0.7071 0.0000 -0.7071
vn 0.9348 0.3553 0.0000
vn 0.7071 -0.7071 0.0000
vn -0.3362 -0.3362 -0.8797
vn 0.0000 0.0000 -1.0000
vn 0.0000 -0.3553 -0.9348
vn -0.3362 0.3362 -0.8797
vn -0.3553 0.0000 -0.9348
vn 0.3362 -0.3362 -0.8797
vn 0.3362 0.3362 -0.8797
vn 0.3553 0.0000 -0.9348
vn 0.0000 0.3553 -0.9348
vn -0.7071 0.7071 0.0000
usemtl Material
s 1
f 45/1/1 49/2/2 48/3/3
f 47/4/4 49/2/2 46/5/5
f 49/2/2 51/6/6 48/3/3
f 49/2/2 53/7/7 52/8/8
f 1/9/9 45/1/1 30/10/10
f 41/11/11 46/5/5 45/1/1
f 39/12/12 46/5/5 40/13/13
f 5/14/14 47/4/4 39/12/12
f 38/15/15 50/16/16 47/4/4
f 50/16/16 36/17/17 53/7/7
f 53/7/7 7/18/18 29/19/19
f 52/8/8 29/19/19 28/20/20
f 52/8/8 27/21/21 51/6/6
f 51/6/6 3/22/22 32/23/23
f 48/3/3 32/23/23 31/24/24
f 30/10/10 48/3/3 31/24/24
f 54/25/25 58/26/26 57/27/27
f 56/28/28 58/26/26 55/29/29
f 58/26/26 60/30/30 57/27/27
f 58/26/26 62/31/31 61/32/32
f 4/33/33 54/25/25 35/34/34
f 23/35/35 55/29/29 54/25/25
f 21/36/36 55/29/29 22/37/37
f 3/38/22 56/28/28 21/36/36
f 27/39/21 59/40/38 56/28/28
f 59/40/38 29/41/19 62/31/31
f 62/31/31 7/42/18 20/43/39
f 61/32/32 20/43/39 19/44/40
f 61/32/32 18/45/41 60/30/30
f 60/30/30 8/46/42 33/47/43
f 57/27/27 33/47/43 34/48/44
f 35/34/34 57/27/27 34/48/44
f 63/49/45 67/50/46 66/51/47
f 65/52/48 67/50/46 64/53/49
f 67/50/46 69/54/50 66/51/47
f 67/50/46 71/55/51 70/56/52
f 8/46/42 63/49/45 11/57/53
f 18/45/41 64/53/49 63/49/45
f 20/43/39 64/53/49 19/44/40
f 7/42/18 65/52/48 20/43/39
f 36/58/17 68/59/54 65/52/48
f 68/59/54 38/60/15 71/55/51
f 71/55/51 5/61/14 24/62/55
f 70/56/52 24/62/55 25/63/56
f 70/56/52 26/64/57 69/54/50
f 69/54/50 6/65/58 9/66/59
f 66/51/47 9/66/59 10/67/60
f 11/57/53 66/51/47 10/67/60
f 72/68/61 76/69/62 75/70/63
f 74/71/64 76/69/62 73/72/65
f 76/69/62 78/73/66 75/70/63
f 76/69/62 80/74/67 79/75/68
f 6/65/58 72/68/61 9/76/59
f 14/77/69 73/72/65 72/68/61
f 12/78/70 73/72/65 13/79/71
f 2/80/72 74/71/64 12/78/70
f 44/81/73 77/82/74 74/71/64
f 77/82/74 42/83/75 80/74/67
f 80/74/67 4/84/33 35/85/34
f 79/75/68 35/85/34 34/86/44
f 79/75/68 33/87/43 78/73/66
f 78/73/66 8/88/42 11/89/53
f 75/70/63 11/89/53 10/90/60
f 9/76/59 75/70/63 10/90/60
f 81/91/76 85/92/77 84/93/78
f 83/94/79 85/92/77 82/95/80
f 85/92/77 87/96/81 84/93/78
f 85/92/77 89/97/82 88/98/83
f 2/99/72 81/91/76 44/100/73
f 17/101/84 82/95/80 81/91/76
f 15/102/85 82/95/80 16/103/86
f 1/104/9 83/94/79 15/102/85
f 30/105/10 86/106/87 83/94/79
f 86/106/87 32/107/23 89/97/82
f 89/97/82 3/108/22 21/109/36
f 88/98/83 21/109/36 22/110/37
f 88/98/83 23/111/35 87/96/81
f 87/96/81 4/112/33 42/113/75
f 84/93/78 42/113/75 43/114/88
f 44/100/73 84/93/78 43/114/88
f 90/115/89 94/116/90 93/117/91
f 92/118/92 94/116/90 91/119/93
f 94/116/90 96/120/94 93/117/91
f 94/116/90 98/121/95 97/122/96
f 6/123/58 90/115/89 14/124/69
f 26/125/57 91/119/93 90/115/89
f 24/126/55 91/119/93 25/127/56
f 5/128/14 92/118/92 24/126/55
f 39/129/12 95/130/97 92/118/92
f 95/130/97 41/131/11 98/121/95
f 98/121/95 1/132/9 15/133/85
f 97/122/96 15/133/85 16/134/86
f 97/122/96 17/135/84 96/120/94
f 96/120/94 2/80/72 12/136/70
f 93/117/91 12/136/70 13/137/71
f 14/124/69 93/117/91 13/137/71
f 45/1/1 46/5/5 49/2/2
f 47/4/4 50/16/16 49/2/2
f 49/2/2 52/8/8 51/6/6
f 49/2/2 50/16/16 53/7/7
f 1/9/9 41/11/11 45/1/1
f 41/11/11 40/13/13 46/5/5
f 39/12/12 47/4/4 46/5/5
f 5/14/14 38/15/15 47/4/4
f 38/15/15 37/138/98 50/16/16
f 50/16/16 37/138/98 36/17/17
f 53/7/7 36/17/17 7/18/18
f 52/8/8 53/7/7 29/19/19
f 52/8/8 28/20/20 27/21/21
f 51/6/6 27/21/21 3/22/22
f 48/3/3 51/6/6 32/23/23
f 30/10/10 45/1/1 48/3/3
f 54/25/25 55/29/29 58/26/26
f 56/28/28 59/40/38 58/26/26
f 58/26/26 61/32/32 60/30/30
f 58/26/26 59/40/38 62/31/31
f 4/33/33 23/35/35 54/25/25
f 23/35/35 22/37/37 55/29/29
f 21/36/36 56/28/28 55/29/29
f 3/38/22 27/39/21 56/28/28
f 27/39/21 28/139/20 59/40/38
f 59/40/38 28/139/20 29/41/19
f 62/31/31 29/41/19 7/42/18
f 61/32/32 62/31/31 20/43/39
f 61/32/32 19/44/40 18/45/41
f 60/30/30 18/45/41 8/46/42
f 57/27/27 60/30/30 33/47/43
f 35/34/34 54/25/25 57/27/27
f 63/49/45 64/53/49 67/50/46
f 65/52/48 68/59/54 67/50/46
f 67/50/46 70/56/52 69/54/50
f 67/50/46 68/59/54 71/55/51
f 8/46/42 18/45/41 63/49/45
f 18/45/41 19/44/40 64/53/49
f 20/43/39 65/52/48 64/53/49
f 7/42/18 36/58/17 65/52/48
f 36/58/17 37/140/98 68/59/54
f 68/59/54 37/140/98 38/60/15
f 71/55/51 38/60/15 5/61/14
f 70/56/52 71/55/51 24/62/55
f 70/56/52 25/63/56 26/64/57
f 69/54/50 26/64/57 6/65/58
f 66/51/47 69/54/50 9/66/59
f 11/57/53 63/49/45 66/51/47
f 72/68/61 73/72/65 76/69/62
f 74/71/64 77/82/74 76/69/62
f 76/69/62 79/75/68 78/73/66
f 76/69/62 77/82/74 80/74/67
f 6/65/58 14/77/69 72/68/61
f 14/77/69 13/79/71 73/72/65
f 12/78/70 74/71/64 73/72/65
f 2/80/72 44/81/73 74/71/64
f 44/81/73 43/141/88 77/82/74
f 77/82/74 43/141/88 42/83/75
f 80/74/67 42/83/75 4/84/33
f 79/75/68 80/74/67 35/85/34
f 79/75/68 34/86/44 33/87/43
f 78/73/66 33/87/43 8/88/42
f 75/70/63 78/73/66 11/89/53
f 9/76/59 72/68/61 75/70/63
f 81/91/76 82/95/80 85/92/77
f 83/94/79 86/106/87 85/92/77
f 85/92/77 88/98/83 87/96/81
f 85/92/77 86/106/87 89/97/82
f 2/99/72 17/101/84 81/91/76
f 17/101/84 16/103/86 82/95/80
f 15/102/85 83/94/79 82/95/80
f 1/104/9 30/105/10 83/94/79
f 30/105/10 31/142/24 86/106/87
f 86/106/87 31/142/24 32/107/23
f 89/97/82 32/107/23 3/108/22
f 88/98/83 89/97/82 21/109/36
f 88/98/83 22/110/37 23/111/35
f 87/96/81 23/111/35 4/112/33
f 84/93/78 87/96/81 42/113/75
f 44/100/73 81/91/76 84/93/78
f 90/115/89 91/119/93 94/116/90
f 92/118/92 95/130/97 94/116/90
f 94/116/90 97/122/96 96/120/94
f 94/116/90 95/130/97 98/121/95
f 6/123/58 26/125/57 90/115/89
f 26/125/57 25/127/56 91/119/93
f 24/126/55 92/118/92 91/119/93
f 5/128/14 39/129/12 92/118/92
f 39/129/12 40/143/13 95/130/97
f 95/130/97 40/143/13 41/131/11
f 98/121/95 41/131/11 1/132/9
f 97/122/96 98/121/95 15/133/85
f 97/122/96 16/134/86 17/135/84
f 96/120/94 17/135/84 2/80/72
f 93/117/91 96/120/94 12/136/70
f 14/124/69 90/115/89 93/117/91
